<svg id="Capa_1" enable-background="new 0 0 512 512" height="512" viewBox="0 0 512 512" width="512" xmlns="http://www.w3.org/2000/svg"><g><path d="m437.02 74.98c-48.353-48.351-112.64-74.98-181.02-74.98s-132.667 26.629-181.02 74.98c-48.351 48.353-74.98 112.64-74.98 181.02s26.629 132.667 74.98 181.02c48.353 48.351 112.64 74.98 181.02 74.98s132.667-26.629 181.02-74.98c48.351-48.353 74.98-112.64 74.98-181.02s-26.629-132.667-74.98-181.02zm-181.02 407.02c-124.617 0-226-101.383-226-226s101.383-226 226-226 226 101.383 226 226-101.383 226-226 226z"/><path d="m336 211c30.327 0 55-24.673 55-55s-24.673-55-55-55-55 24.673-55 55c0 4.329.519 8.537 1.469 12.581l-87.523 48.623c-9.965-10.003-23.744-16.204-38.946-16.204-30.327 0-55 24.673-55 55s24.673 55 55 55c15.202 0 28.981-6.201 38.946-16.204l87.523 48.623c-.95 4.044-1.469 8.252-1.469 12.581 0 30.327 24.673 55 55 55s55-24.673 55-55-24.673-55-55-55c-15.202 0-28.981 6.201-38.946 16.204l-87.523-48.623c.95-4.043 1.469-8.251 1.469-12.581s-.519-8.537-1.469-12.581l87.523-48.623c9.965 10.003 23.744 16.204 38.946 16.204zm0 120c13.785 0 25 11.215 25 25s-11.215 25-25 25-25-11.215-25-25 11.215-25 25-25zm-180-50c-13.785 0-25-11.215-25-25s11.215-25 25-25 25 11.215 25 25-11.215 25-25 25zm180-150c13.785 0 25 11.215 25 25s-11.215 25-25 25-25-11.215-25-25 11.215-25 25-25z"/></g></svg>